<?xml version="1.0" encoding="UTF-8" standalone="no"?>
<!-- Created with Inkscape (http://www.inkscape.org/) -->

<svg
   width="157.15733mm"
   height="55.580379mm"
   viewBox="0 0 157.15733 55.580379"
   version="1.1"
   id="svg1"
   xml:space="preserve"
   xmlns="http://www.w3.org/2000/svg"
   xmlns:svg="http://www.w3.org/2000/svg"><defs
     id="defs1"><clipPath
       id="dd234ead87"><path
         d="M 28.40625,133.05469 H 279 v 84.65625 H 28.40625 Z m 0,0"
         id="path1" /></clipPath><clipPath
       id="d962af0d9a"><path
         d="m 244,168 h 91 v 73 h -91 z m 0,0"
         id="path2" /></clipPath><clipPath
       id="1de413dfa7"><path
         d="m 335.67969,238.98828 -89.61328,2.01563 -1.625,-72.19141 89.61328,-2.01563 z m 0,0"
         id="path3" /></clipPath><clipPath
       id="58d8f7848e"><path
         d="m 246.14062,241.00391 89.61719,-2.01563 -1.625,-72.19141 -89.61328,2.01563 z m 0,0"
         id="path4" /></clipPath><clipPath
       id="77c2292535"><path
         d="m 50,153 h 148 v 52 H 50 Z m 0,0"
         id="path5" /></clipPath><clipPath
       id="56db715c2c"><path
         d="m 48.703125,155.14844 148.437495,-6.11719 2.08594,50.58594 -148.441404,6.11718 z m 0,0"
         id="path6" /></clipPath><clipPath
       id="72210b54c2"><path
         d="m 48.703125,155.14844 148.437495,-6.11719 2.08594,50.58594 -148.441404,6.11718 z m 0,0"
         id="path7" /></clipPath></defs><g
     id="layer1"
     transform="translate(-26.245959,-121.52293)"><g
       id="e2ea7c18d9"
       transform="matrix(0.51351579,0,0,0.52130915,11.632607,51.970782)"><g
         id="g1"><g
           style="fill:#071b51;fill-opacity:1"
           id="g9"><g
             transform="translate(99.519663,222.46892)"
             id="g8"><path
               style="stroke:none"
               d="M 26.234375,-0.03125 H 16.28125 l 1.984375,-9.53125 h -6.25 L 10.03125,-0.03125 H 0.046875 L 5.40625,-25.703125 c 0.289062,-1.425781 0.96875,-2.582031 2.03125,-3.46875 1.0625,-0.863281 2.269531,-1.296875 3.625,-1.296875 h 16.84375 c 1.40625,0 2.445312,0.433594 3.125,1.296875 0.6875,0.886719 0.867188,2.042969 0.546875,3.46875 z M 15.59375,-26.640625 12.8125,-13.34375 h 6.21875 l 2.78125,-13.296875 z m 0,0"
               id="path8" /></g></g><g
           style="fill:#071b51;fill-opacity:1"
           id="g11"><g
             transform="translate(131.7249,222.46892)"
             id="g10"><path
               style="stroke:none"
               d="M 21.234375,0 H 0.03125 l 6.328125,-30.421875 h 9.96875 L 10.78125,-3.78125 H 22 Z m 0,0"
               id="path9" /></g></g><g
           style="fill:#071b51;fill-opacity:1"
           id="g13"><g
             transform="translate(154.21377,222.46892)"
             id="g12"><path
               style="stroke:none"
               d="m 24.25,-17.109375 c 1.414062,0 2.46875,0.433594 3.15625,1.296875 0.664062,0.886719 0.84375,2.042969 0.53125,3.46875 l -1.5625,7.578125 c -0.324219,1.429687 -1.007812,2.585937 -2.046875,3.46875 C 23.304688,-0.429688 22.097656,0 20.703125,0 H 3.859375 C 2.429688,0 1.390625,-0.429688 0.734375,-1.296875 0.0664062,-2.179688 -0.113281,-3.335938 0.1875,-4.765625 L 1,-8.875 h 9.984375 l -1.0625,5.09375 h 6.25 L 18.15625,-13.3125 H 6.640625 c -1.40625,0 -2.453125,-0.429688 -3.140625,-1.296875 -0.679688,-0.863281 -0.855469,-2.019531 -0.53125,-3.46875 l 1.5625,-7.578125 c 0.28125,-1.425781 0.957031,-2.582031 2.03125,-3.46875 1.019531,-0.863281 2.226562,-1.296875 3.625,-1.296875 h 16.84375 c 1.40625,0 2.457031,0.433594 3.15625,1.296875 0.664062,0.886719 0.835938,2.042969 0.515625,3.46875 l -0.8125,4.109375 H 19.90625 l 1.03125,-5.03125 h -6.25 l -1.984375,9.46875 z m 0,0"
               id="path11" /></g></g><g
           style="fill:#071b51;fill-opacity:1"
           id="g15"
           transform="translate(3.2697192,0.49551358)"><g
             transform="translate(185.33353,222.46892)"
             id="g14"><path
               style="stroke:none"
               d="m 25.390625,-26.578125 h -7.46875 L 12.390625,0 H 2.40625 l 5.5625,-26.578125 H 0.5 l 0.765625,-3.84375 H 26.1875 Z m 0,0"
               id="path13" /></g></g><g
           style="fill:#071b51;fill-opacity:1"
           id="g17"><g
             transform="translate(211.97898,222.46892)"
             id="g16"><path
               style="stroke:none"
               d="M 26.234375,-0.03125 H 16.28125 l 1.984375,-9.53125 h -6.25 L 10.03125,-0.03125 H 0.046875 L 5.40625,-25.703125 c 0.289062,-1.425781 0.96875,-2.582031 2.03125,-3.46875 1.0625,-0.863281 2.269531,-1.296875 3.625,-1.296875 h 16.84375 c 1.40625,0 2.445312,0.433594 3.125,1.296875 0.6875,0.886719 0.867188,2.042969 0.546875,3.46875 z M 15.59375,-26.640625 12.8125,-13.34375 h 6.21875 l 2.78125,-13.296875 z m 0,0"
               id="path15" /></g></g><g
           style="fill:#071b51;fill-opacity:1"
           id="g19"><g
             transform="translate(244.18422,222.46892)"
             id="g18"><path
               style="stroke:none"
               d="M 15.546875,-26.609375 12.78125,-13.3125 h 6.203125 l 2.75,-13.296875 z M 26.203125,0 H 16.25 L 14.828125,-9.53125 H 12 L 10,0 H 0.03125 L 6.359375,-30.421875 H 27.84375 c 1.4375,0 2.476562,0.433594 3.125,1.296875 0.675781,0.835938 0.851562,1.980469 0.53125,3.4375 l -2.328125,11.390625 c -0.261719,1.21875 -0.792969,2.246094 -1.59375,3.078125 -0.773437,0.792969 -1.714844,1.3125 -2.828125,1.5625 z m 0,0"
               id="path17" /></g></g><g
           clip-rule="nonzero"
           clip-path="url(#dd234ead87)"
           id="g20"><path
             style="fill:#071b51;fill-opacity:1;fill-rule:nonzero;stroke:none"
             d="m 114.17969,134.92969 -9.94141,30.39062 c -0.0586,0.17578 -0.0703,0.35938 -0.043,0.54297 0.0273,0.18359 0.0937,0.35156 0.20313,0.50391 0.10937,0.15234 0.24609,0.27343 0.41015,0.35937 0.16407,0.0859 0.33985,0.13281 0.52735,0.13672 l 171.66797,1.70313 c 0.15625,0 0.30859,0.0312 0.44921,0.0898 0.14454,0.0586 0.27344,0.14453 0.38282,0.25391 0.10937,0.11328 0.19531,0.23828 0.2539,0.38281 0.0625,0.14453 0.0899,0.29297 0.0899,0.44922 0,0.15625 -0.0274,0.30859 -0.0899,0.45312 -0.0586,0.14063 -0.14453,0.26953 -0.2539,0.37891 -0.10938,0.11328 -0.23828,0.19531 -0.38282,0.25781 -0.14062,0.0586 -0.29296,0.0898 -0.44921,0.0898 l -180.839818,18.0118 c -0.441406,0.0547 -0.75,0.28516 -0.933593,0.69141 l -11.238281,26.82031 c -0.07422,0.17188 -0.1875,0.32031 -0.332032,0.44141 -0.144531,0.11719 -0.3125,0.19922 -0.496094,0.23828 -0.1875,0.0391 -0.371093,0.0352 -0.550781,-0.0117 -0.183593,-0.0508 -0.347656,-0.13672 -0.488281,-0.26172 L 66.179688,202.12109 c -0.160157,-0.15625 -0.351563,-0.25781 -0.570313,-0.30078 -0.222656,-0.0469 -0.4375,-0.0273 -0.644531,0.0586 l -34.9375,13.99609 c -0.253906,0.0898 -0.507813,0.0937 -0.765625,0.008 -0.257813,-0.0859 -0.460938,-0.24219 -0.609375,-0.46875 -0.148438,-0.22656 -0.210938,-0.47265 -0.191406,-0.74219 0.02344,-0.26953 0.125,-0.5039 0.308593,-0.70312 l 24.0625,-24.34375 c 0.203125,-0.22266 0.304688,-0.48828 0.304688,-0.79297 0,-0.30078 -0.101563,-0.56641 -0.304688,-0.78906 L 37.574219,169.90625 c -0.148438,-0.17188 -0.238281,-0.37109 -0.273438,-0.59375 -0.03516,-0.22656 -0.0078,-0.44141 0.08594,-0.64844 0.08984,-0.21094 0.230469,-0.3789 0.417969,-0.5039 0.1875,-0.12891 0.394531,-0.19532 0.621093,-0.20313 l 37.695313,-1.05469 c 0.390625,0 0.714844,-0.14843 0.972656,-0.44531 l 35.179688,-32.74219 c 0.19531,-0.17578 0.42578,-0.27343 0.6875,-0.29297 0.26172,-0.0195 0.5039,0.0391 0.72265,0.17969 0.22266,0.14453 0.37891,0.33594 0.47266,0.58203 0.0898,0.2461 0.0977,0.4961 0.0234,0.7461 z m 0,0"
             id="path19" /></g><g
           clip-rule="nonzero"
           clip-path="url(#d962af0d9a)"
           id="g23"><g
             clip-rule="nonzero"
             clip-path="url(#1de413dfa7)"
             id="g22"><g
               clip-rule="nonzero"
               clip-path="url(#58d8f7848e)"
               id="g21"><path
                 style="fill:#071b51;fill-opacity:1;fill-rule:evenodd;stroke:none"
                 d="m 273.94531,168.24609 c -10.57812,0.23828 -20.48437,1.71094 -29.0664,4.09766 5.91796,-1.03906 12.26171,-1.66406 18.86718,-1.8125 33.10157,-0.74609 60.21094,10.87109 60.55078,25.94531 0.23047,10.25391 -11.99218,19.46875 -30.25781,24.55078 23.76172,-4.14453 40.73047,-14.76562 40.45703,-26.83593 -0.33984,-15.07032 -27.44922,-26.6875 -60.55078,-25.94532 z m 2.41016,57.70703 0.004,0.22266 c 13.21485,-0.29687 14.22266,1.82422 14.49219,13.85938 l 0.22266,-0.004 c -0.26953,-12.03516 0.64453,-14.20313 13.85937,-14.5 l -0.004,-0.21875 c -13.21485,0.29687 -14.22657,-1.82031 -14.4961,-13.85547 l -0.22265,0.004 c 0.26953,12.03515 -0.64063,14.19531 -13.85547,14.49218"
                 id="path20" /></g></g></g><g
           clip-rule="nonzero"
           clip-path="url(#77c2292535)"
           id="g26"><g
             clip-rule="nonzero"
             clip-path="url(#56db715c2c)"
             id="g25"><g
               clip-rule="nonzero"
               clip-path="url(#72210b54c2)"
               id="g24"><path
                 style="fill:#ffffff;fill-opacity:1;fill-rule:nonzero;stroke:none"
                 d="m 99.691406,154.16797 -5.160156,18.29297 c -0.03125,0.10547 -0.03516,0.21484 -0.01563,0.32031 0.02344,0.10937 0.06641,0.20703 0.132813,0.29687 0.07031,0.0859 0.152343,0.15625 0.253906,0.20313 0.101562,0.0469 0.207031,0.0703 0.316406,0.0664 l 101.996085,-3.1875 c 0.19532,-0.008 0.36328,0.0508 0.50391,0.18359 0.14062,0.12891 0.21875,0.29297 0.22656,0.48437 0.008,0.19532 -0.0547,0.35938 -0.18359,0.50391 -0.13281,0.14063 -0.29297,0.21484 -0.48828,0.22266 L 90.3125,186.68359 c -0.261719,0.043 -0.441406,0.1836 -0.539062,0.42969 l -6.015626,16.20313 c -0.04297,0.10546 -0.105468,0.19531 -0.1875,0.27343 -0.08594,0.0742 -0.179687,0.125 -0.289062,0.15235 -0.109375,0.0273 -0.21875,0.0312 -0.328125,0.008 -0.109375,-0.0234 -0.207031,-0.0742 -0.292969,-0.14453 l -9.832031,-8.35938 c -0.21875,-0.19531 -0.460937,-0.23437 -0.730469,-0.11328 l -20.40625,9.16797 c -0.148437,0.0625 -0.300781,0.0703 -0.453125,0.0234 -0.15625,-0.043 -0.277343,-0.13281 -0.375,-0.26172 -0.09375,-0.13281 -0.136719,-0.27734 -0.128906,-0.4375 0.0078,-0.16016 0.0625,-0.30078 0.164063,-0.42578 L 64.59375,188.15234 c 0.117188,-0.13672 0.167969,-0.29687 0.160156,-0.47656 -0.0039,-0.17969 -0.07422,-0.33594 -0.199218,-0.46484 l -9.503907,-10.39453 c -0.203125,-0.21485 -0.25,-0.46094 -0.144531,-0.73438 0.109375,-0.27734 0.308594,-0.42187 0.601562,-0.44531 l 22.363282,-1.55078 c 0.230468,-0.008 0.421875,-0.10547 0.566406,-0.28516 l 20.089844,-20.30859 c 0.113281,-0.10938 0.246094,-0.17188 0.402344,-0.19141 0.152343,-0.0195 0.300781,0.0117 0.433593,0.0898 0.136719,0.0781 0.234375,0.19141 0.292969,0.33594 0.0625,0.14063 0.07031,0.28906 0.03516,0.44141 z m 0,0"
                 id="path23" /></g></g></g><g
           style="fill:#071b51;fill-opacity:1"
           id="g28"><g
             transform="translate(75.185992,234.51378)"
             id="g27"><path
               style="stroke:none"
               d="m 4.953125,-3.484375 c 0.28125,0 0.492187,0.089844 0.640625,0.265625 0.132812,0.179688 0.171875,0.414062 0.109375,0.703125 L 5.375,-0.96875 C 5.3125,-0.675781 5.175781,-0.441406 4.96875,-0.265625 4.757812,-0.0859375 4.507812,0 4.21875,0 h -3.4375 c -0.292969,0 -0.5,-0.0859375 -0.625,-0.265625 -0.1367188,-0.175781 -0.1757812,-0.410156 -0.125,-0.703125 L 0.203125,-1.8125 h 2.03125 L 2.03125,-0.765625 h 1.265625 l 0.40625,-1.953125 h -2.34375 c -0.292969,0 -0.507813,-0.085938 -0.640625,-0.265625 C 0.570312,-3.160156 0.535156,-3.394531 0.609375,-3.6875 l 0.3125,-1.546875 C 0.984375,-5.523438 1.125,-5.757812 1.34375,-5.9375 1.550781,-6.113281 1.796875,-6.203125 2.078125,-6.203125 h 3.4375 c 0.289063,0 0.503906,0.089844 0.640625,0.265625 0.132812,0.179688 0.171875,0.414062 0.109375,0.703125 L 6.09375,-4.390625 H 4.0625 l 0.203125,-1.03125 H 3 l -0.40625,1.9375 z m 0,0"
               id="path26" /></g></g><g
           style="fill:#071b51;fill-opacity:1"
           id="g30"><g
             transform="translate(81.430027,234.51378)"
             id="g29"><path
               style="stroke:none"
               d="M 5.375,-0.96875 C 5.3125,-0.675781 5.175781,-0.441406 4.96875,-0.265625 4.757812,-0.0859375 4.507812,0 4.21875,0 H 0.78125 C 0.5,0 0.285156,-0.0859375 0.140625,-0.265625 0.00390625,-0.441406 -0.03125,-0.675781 0.03125,-0.96875 L 1.125,-6.203125 h 2.03125 l -1.125,5.4375 h 1.265625 l 1.140625,-5.4375 h 2.03125 z m 0,0"
               id="path28" /></g></g><g
           style="fill:#071b51;fill-opacity:1"
           id="g32"><g
             transform="translate(87.954692,234.51378)"
             id="g31"><path
               style="stroke:none"
               d="M 5.46875,0 H 3.4375 L 2.859375,-3.890625 2.03125,0 H 0 l 1.296875,-6.203125 h 2.03125 L 3.921875,-2.3125 4.71875,-6.203125 h 2.046875 z m 0,0"
               id="path30" /></g></g><g
           style="fill:#071b51;fill-opacity:1"
           id="g34"><g
             transform="translate(94.716815,234.51378)"
             id="g33"><path
               style="stroke:none"
               d="M 5.78125,0 H 3.75 L 3.609375,-2.375 2.46875,0 H 0.4375 L 0.078125,-6.203125 h 2.03125 L 2.375,-1.546875 3.515625,-3.9375 l -0.125,-2.265625 h 2.03125 l 0.265625,4.65625 2.203125,-4.65625 H 8.71875 Z m 0,0"
               id="path32" /></g></g><g
           style="fill:#071b51;fill-opacity:1"
           id="g36"><g
             transform="translate(103.35701,234.51378)"
             id="g35"><path
               style="stroke:none"
               d="m 5.359375,0 h -2.03125 l 0.40625,-1.953125 H 2.453125 L 2.046875,0 h -2.03125 l 1.09375,-5.25 c 0.050781,-0.289062 0.1875,-0.523438 0.40625,-0.703125 0.21875,-0.175781 0.46875,-0.265625 0.75,-0.265625 H 5.6875 c 0.289062,0 0.503906,0.089844 0.640625,0.265625 C 6.472656,-5.773438 6.507812,-5.539062 6.4375,-5.25 Z M 3.1875,-5.4375 2.609375,-2.71875 h 1.28125 l 0.5625,-2.71875 z m 0,0"
               id="path34" /></g></g><g
           style="fill:#071b51;fill-opacity:1"
           id="g38"><g
             transform="translate(109.82231,234.51378)"
             id="g37"><path
               style="stroke:none"
               d="M 3,-1.9375 2.59375,0 H 0.5625 L 0.96875,-1.9375 0.203125,-6.203125 h 2.03125 L 2.8125,-3 4.703125,-6.203125 H 5.53125 Z m 0,0"
               id="path36" /></g></g><g
           style="fill:#071b51;fill-opacity:1"
           id="g42"><g
             transform="translate(118.91582,234.51378)"
             id="g41"><path
               style="stroke:none"
               d="m 5.359375,0 h -2.03125 l 0.40625,-1.953125 H 2.453125 L 2.046875,0 h -2.03125 l 1.09375,-5.25 c 0.050781,-0.289062 0.1875,-0.523438 0.40625,-0.703125 0.21875,-0.175781 0.46875,-0.265625 0.75,-0.265625 H 5.6875 c 0.289062,0 0.503906,0.089844 0.640625,0.265625 C 6.472656,-5.773438 6.507812,-5.539062 6.4375,-5.25 Z M 3.1875,-5.4375 2.609375,-2.71875 h 1.28125 l 0.5625,-2.71875 z m 0,0"
               id="path40" /></g></g><g
           style="fill:#071b51;fill-opacity:1"
           id="g44"><g
             transform="translate(125.38112,234.51378)"
             id="g43"><path
               style="stroke:none"
               d="M 3.890625,-2.125 H 0.375 l 0.1875,-1.203125 h 3.515625 z m 0,0"
               id="path42" /></g></g><g
           style="fill:#071b51;fill-opacity:1"
           id="g46"><g
             transform="translate(129.86582,234.51378)"
             id="g45"><path
               style="stroke:none"
               d="M 4.328125,0 H 0 l 1.296875,-6.203125 h 2.03125 l -1.125,5.4375 h 2.28125 z m 0,0"
               id="path44" /></g></g><g
           style="fill:#071b51;fill-opacity:1"
           id="g48"><g
             transform="translate(134.35052,234.51378)"
             id="g47"><path
               style="stroke:none"
               d="M 0.84375,0 C 0.5625,0 0.347656,-0.09375 0.203125,-0.28125 0.0664062,-0.457031 0.03125,-0.691406 0.09375,-0.984375 L 0.984375,-5.25 C 1.046875,-5.539062 1.1875,-5.773438 1.40625,-5.953125 1.613281,-6.128906 1.859375,-6.21875 2.140625,-6.21875 h 3.375 L 5.359375,-5.4375 H 3.0625 L 2.65625,-3.5 H 4.4375 L 4.265625,-2.71875 H 2.5 l -0.421875,1.9375 H 4.375 L 4.21875,0 Z m 0,0"
               id="path46" /></g></g><g
           style="fill:#071b51;fill-opacity:1"
           id="g50"><g
             transform="translate(139.80123,234.51378)"
             id="g49"><path
               style="stroke:none"
               d="M 2.546875,0 H 0.515625 L 0.15625,-6.203125 H 2.1875 L 2.453125,-1.5625 4.65625,-6.203125 h 0.828125 z m 0,0"
               id="path48" /></g></g><g
           style="fill:#071b51;fill-opacity:1"
           id="g52"><g
             transform="translate(145.21416,234.51378)"
             id="g51"><path
               style="stroke:none"
               d="M 0.84375,0 C 0.5625,0 0.347656,-0.09375 0.203125,-0.28125 0.0664062,-0.457031 0.03125,-0.691406 0.09375,-0.984375 L 0.984375,-5.25 C 1.046875,-5.539062 1.1875,-5.773438 1.40625,-5.953125 1.613281,-6.128906 1.859375,-6.21875 2.140625,-6.21875 h 3.375 L 5.359375,-5.4375 H 3.0625 L 2.65625,-3.5 H 4.4375 L 4.265625,-2.71875 H 2.5 l -0.421875,1.9375 H 4.375 L 4.21875,0 Z m 0,0"
               id="path50" /></g></g><g
           style="fill:#071b51;fill-opacity:1"
           id="g54"><g
             transform="translate(150.66488,234.51378)"
             id="g53"><path
               style="stroke:none"
               d="M 4.328125,0 H 0 l 1.296875,-6.203125 h 2.03125 l -1.125,5.4375 h 2.28125 z m 0,0"
               id="path52" /></g></g><g
           style="fill:#071b51;fill-opacity:1"
           id="g58"><g
             transform="translate(158.87333,234.51378)"
             id="g57"><path
               style="stroke:none"
               d="m 4.953125,-3.484375 c 0.28125,0 0.492187,0.089844 0.640625,0.265625 0.132812,0.179688 0.171875,0.414062 0.109375,0.703125 L 5.375,-0.96875 C 5.3125,-0.675781 5.175781,-0.441406 4.96875,-0.265625 4.757812,-0.0859375 4.507812,0 4.21875,0 h -3.4375 c -0.292969,0 -0.5,-0.0859375 -0.625,-0.265625 -0.1367188,-0.175781 -0.1757812,-0.410156 -0.125,-0.703125 L 0.203125,-1.8125 h 2.03125 L 2.03125,-0.765625 h 1.265625 l 0.40625,-1.953125 h -2.34375 c -0.292969,0 -0.507813,-0.085938 -0.640625,-0.265625 C 0.570312,-3.160156 0.535156,-3.394531 0.609375,-3.6875 l 0.3125,-1.546875 C 0.984375,-5.523438 1.125,-5.757812 1.34375,-5.9375 1.550781,-6.113281 1.796875,-6.203125 2.078125,-6.203125 h 3.4375 c 0.289063,0 0.503906,0.089844 0.640625,0.265625 0.132812,0.179688 0.171875,0.414062 0.109375,0.703125 L 6.09375,-4.390625 H 4.0625 l 0.203125,-1.03125 H 3 l -0.40625,1.9375 z m 0,0"
               id="path56" /></g></g><g
           style="fill:#071b51;fill-opacity:1"
           id="g60"><g
             transform="translate(165.11736,234.51378)"
             id="g59"><path
               style="stroke:none"
               d="M 5.1875,-5.421875 H 3.65625 L 2.53125,0 H 0.484375 L 1.625,-5.421875 H 0.109375 l 0.15625,-0.78125 H 5.34375 Z m 0,0"
               id="path58" /></g></g><g
           style="fill:#071b51;fill-opacity:1"
           id="g62"><g
             transform="translate(170.44935,234.51378)"
             id="g61"><path
               style="stroke:none"
               d="M 5.375,-0.96875 C 5.3125,-0.675781 5.175781,-0.441406 4.96875,-0.265625 4.757812,-0.0859375 4.507812,0 4.21875,0 H 0.78125 C 0.5,0 0.285156,-0.0859375 0.140625,-0.265625 0.00390625,-0.441406 -0.03125,-0.675781 0.03125,-0.96875 L 1.125,-6.203125 h 2.03125 l -1.125,5.4375 h 1.265625 l 1.140625,-5.4375 h 2.03125 z m 0,0"
               id="path60" /></g></g><g
           style="fill:#071b51;fill-opacity:1"
           id="g64"><g
             transform="translate(176.97401,234.51378)"
             id="g63"><path
               style="stroke:none"
               d="M 5.390625,-0.984375 C 5.328125,-0.679688 5.1875,-0.445312 4.96875,-0.28125 4.757812,-0.09375 4.515625,0 4.234375,0 H -0.15625 L 1.140625,-6.21875 H 5.53125 c 0.28125,0 0.492188,0.089844 0.640625,0.265625 C 6.304688,-5.773438 6.34375,-5.539062 6.28125,-5.25 Z m -2.375,-4.453125 -0.96875,4.65625 H 3.3125 L 4.28125,-5.4375 Z m 0,0"
               id="path62" /></g></g><g
           style="fill:#071b51;fill-opacity:1"
           id="g66"><g
             transform="translate(183.15868,234.51378)"
             id="g65"><path
               style="stroke:none"
               d="M 0.84375,0 C 0.5625,0 0.347656,-0.09375 0.203125,-0.28125 0.0664062,-0.457031 0.03125,-0.691406 0.09375,-0.984375 L 0.984375,-5.25 C 1.046875,-5.539062 1.1875,-5.773438 1.40625,-5.953125 1.613281,-6.128906 1.859375,-6.21875 2.140625,-6.21875 h 3.375 L 5.359375,-5.4375 H 3.0625 L 2.65625,-3.5 H 4.4375 L 4.265625,-2.71875 H 2.5 l -0.421875,1.9375 H 4.375 L 4.21875,0 Z m 0,0"
               id="path64" /></g></g><g
           style="fill:#071b51;fill-opacity:1"
           id="g68"><g
             transform="translate(188.6094,234.51378)"
             id="g67"><path
               style="stroke:none"
               d="M 5.46875,0 H 3.4375 L 2.859375,-3.890625 2.03125,0 H 0 l 1.296875,-6.203125 h 2.03125 L 3.921875,-2.3125 4.71875,-6.203125 h 2.046875 z m 0,0"
               id="path66" /></g></g><g
           style="fill:#071b51;fill-opacity:1"
           id="g70"><g
             transform="translate(195.37152,234.51378)"
             id="g69"><path
               style="stroke:none"
               d="M 5.1875,-5.421875 H 3.65625 L 2.53125,0 H 0.484375 L 1.625,-5.421875 H 0.109375 l 0.15625,-0.78125 H 5.34375 Z m 0,0"
               id="path68" /></g></g><g
           style="fill:#071b51;fill-opacity:1"
           id="g74"><g
             transform="translate(204.42726,234.51378)"
             id="g73"><path
               style="stroke:none"
               d="m 5.359375,0 h -2.03125 l 0.40625,-1.953125 H 2.453125 L 2.046875,0 h -2.03125 l 1.09375,-5.25 c 0.050781,-0.289062 0.1875,-0.523438 0.40625,-0.703125 0.21875,-0.175781 0.46875,-0.265625 0.75,-0.265625 H 5.6875 c 0.289062,0 0.503906,0.089844 0.640625,0.265625 C 6.472656,-5.773438 6.507812,-5.539062 6.4375,-5.25 Z M 3.1875,-5.4375 2.609375,-2.71875 h 1.28125 l 0.5625,-2.71875 z m 0,0"
               id="path72" /></g></g><g
           style="fill:#071b51;fill-opacity:1"
           id="g76"><g
             transform="translate(210.89256,234.51378)"
             id="g75"><path
               style="stroke:none"
               d="M 6.25,0 H 4.234375 l 0.75,-3.59375 L 2.9375,0 H 2.09375 L 1.515625,-3.59375 0.765625,0 H 0 l 1.296875,-6.203125 h 1.84375 L 3.6875,-2.8125 5.625,-6.203125 h 1.921875 z m 0,0"
               id="path74" /></g></g><g
           style="fill:#071b51;fill-opacity:1"
           id="g78"><g
             transform="translate(218.43181,234.51378)"
             id="g77"><path
               style="stroke:none"
               d="m 5.921875,-3.6875 c -0.03125,0.125 -0.09375,0.242188 -0.1875,0.34375 C 5.640625,-3.238281 5.53125,-3.160156 5.40625,-3.109375 5.5,-3.054688 5.578125,-2.976562 5.640625,-2.875 c 0.050781,0.105469 0.0625,0.21875 0.03125,0.34375 l -0.3125,1.546875 C 5.296875,-0.679688 5.15625,-0.445312 4.9375,-0.28125 4.71875,-0.09375 4.472656,0 4.203125,0 H -0.1875 l 1.296875,-6.21875 h 4.375 c 0.289063,0 0.503906,0.089844 0.640625,0.265625 C 6.269531,-5.773438 6.3125,-5.539062 6.25,-5.25 Z M 2.96875,-5.4375 2.578125,-3.5 H 3.84375 L 4.25,-5.4375 Z M 2.40625,-2.71875 2,-0.78125 h 1.28125 l 0.40625,-1.9375 z m 0,0"
               id="path76" /></g></g><g
           style="fill:#071b51;fill-opacity:1"
           id="g80"><g
             transform="translate(224.69203,234.51378)"
             id="g79"><path
               style="stroke:none"
               d="m 5.359375,0 h -2.03125 l 0.40625,-1.953125 H 2.453125 L 2.046875,0 h -2.03125 l 1.09375,-5.25 c 0.050781,-0.289062 0.1875,-0.523438 0.40625,-0.703125 0.21875,-0.175781 0.46875,-0.265625 0.75,-0.265625 H 5.6875 c 0.289062,0 0.503906,0.089844 0.640625,0.265625 C 6.472656,-5.773438 6.507812,-5.539062 6.4375,-5.25 Z M 3.1875,-5.4375 2.609375,-2.71875 h 1.28125 l 0.5625,-2.71875 z m 0,0"
               id="path78" /></g></g><g
           style="fill:#071b51;fill-opacity:1"
           id="g82"><g
             transform="translate(231.15735,234.51378)"
             id="g81"><path
               style="stroke:none"
               d="m 4.953125,-3.484375 c 0.28125,0 0.492187,0.089844 0.640625,0.265625 0.132812,0.179688 0.171875,0.414062 0.109375,0.703125 L 5.375,-0.96875 C 5.3125,-0.675781 5.175781,-0.441406 4.96875,-0.265625 4.757812,-0.0859375 4.507812,0 4.21875,0 h -3.4375 c -0.292969,0 -0.5,-0.0859375 -0.625,-0.265625 -0.1367188,-0.175781 -0.1757812,-0.410156 -0.125,-0.703125 L 0.203125,-1.8125 h 2.03125 L 2.03125,-0.765625 h 1.265625 l 0.40625,-1.953125 h -2.34375 c -0.292969,0 -0.507813,-0.085938 -0.640625,-0.265625 C 0.570312,-3.160156 0.535156,-3.394531 0.609375,-3.6875 l 0.3125,-1.546875 C 0.984375,-5.523438 1.125,-5.757812 1.34375,-5.9375 1.550781,-6.113281 1.796875,-6.203125 2.078125,-6.203125 h 3.4375 c 0.289063,0 0.503906,0.089844 0.640625,0.265625 0.132812,0.179688 0.171875,0.414062 0.109375,0.703125 L 6.09375,-4.390625 H 4.0625 l 0.203125,-1.03125 H 3 l -0.40625,1.9375 z m 0,0"
               id="path80" /></g></g><g
           style="fill:#071b51;fill-opacity:1"
           id="g84"><g
             transform="translate(237.40138,234.51378)"
             id="g83"><path
               style="stroke:none"
               d="m 4.953125,-3.484375 c 0.28125,0 0.492187,0.089844 0.640625,0.265625 0.132812,0.179688 0.171875,0.414062 0.109375,0.703125 L 5.375,-0.96875 C 5.3125,-0.675781 5.175781,-0.441406 4.96875,-0.265625 4.757812,-0.0859375 4.507812,0 4.21875,0 h -3.4375 c -0.292969,0 -0.5,-0.0859375 -0.625,-0.265625 -0.1367188,-0.175781 -0.1757812,-0.410156 -0.125,-0.703125 L 0.203125,-1.8125 h 2.03125 L 2.03125,-0.765625 h 1.265625 l 0.40625,-1.953125 h -2.34375 c -0.292969,0 -0.507813,-0.085938 -0.640625,-0.265625 C 0.570312,-3.160156 0.535156,-3.394531 0.609375,-3.6875 l 0.3125,-1.546875 C 0.984375,-5.523438 1.125,-5.757812 1.34375,-5.9375 1.550781,-6.113281 1.796875,-6.203125 2.078125,-6.203125 h 3.4375 c 0.289063,0 0.503906,0.089844 0.640625,0.265625 0.132812,0.179688 0.171875,0.414062 0.109375,0.703125 L 6.09375,-4.390625 H 4.0625 l 0.203125,-1.03125 H 3 l -0.40625,1.9375 z m 0,0"
               id="path82" /></g></g><g
           style="fill:#071b51;fill-opacity:1"
           id="g86"><g
             transform="translate(243.6454,234.51378)"
             id="g85"><path
               style="stroke:none"
               d="m 5.359375,0 h -2.03125 l 0.40625,-1.953125 H 2.453125 L 2.046875,0 h -2.03125 l 1.09375,-5.25 c 0.050781,-0.289062 0.1875,-0.523438 0.40625,-0.703125 0.21875,-0.175781 0.46875,-0.265625 0.75,-0.265625 H 5.6875 c 0.289062,0 0.503906,0.089844 0.640625,0.265625 C 6.472656,-5.773438 6.507812,-5.539062 6.4375,-5.25 Z M 3.1875,-5.4375 2.609375,-2.71875 h 1.28125 l 0.5625,-2.71875 z m 0,0"
               id="path84" /></g></g><g
           style="fill:#071b51;fill-opacity:1"
           id="g88"><g
             transform="translate(250.11072,234.51378)"
             id="g87"><path
               style="stroke:none"
               d="M 5.390625,-0.984375 C 5.328125,-0.679688 5.1875,-0.445312 4.96875,-0.28125 4.757812,-0.09375 4.515625,0 4.234375,0 H -0.15625 L 1.140625,-6.21875 H 5.53125 c 0.28125,0 0.492188,0.089844 0.640625,0.265625 C 6.304688,-5.773438 6.34375,-5.539062 6.28125,-5.25 Z m -2.375,-4.453125 -0.96875,4.65625 H 3.3125 L 4.28125,-5.4375 Z m 0,0"
               id="path86" /></g></g><g
           style="fill:#071b51;fill-opacity:1"
           id="g90"><g
             transform="translate(256.29537,234.51378)"
             id="g89"><path
               style="stroke:none"
               d="M 5.390625,-0.96875 C 5.316406,-0.675781 5.175781,-0.441406 4.96875,-0.265625 4.75,-0.0859375 4.5,0 4.21875,0 H 0.78125 C 0.5,0 0.289062,-0.0859375 0.15625,-0.265625 0.0078125,-0.441406 -0.03125,-0.675781 0.03125,-0.96875 L 0.921875,-5.234375 C 0.984375,-5.535156 1.125,-5.769531 1.34375,-5.9375 1.550781,-6.113281 1.796875,-6.203125 2.078125,-6.203125 h 3.4375 c 0.289063,0 0.503906,0.089844 0.640625,0.265625 0.132812,0.167969 0.171875,0.402344 0.109375,0.703125 z M 3,-5.421875 2.03125,-0.765625 H 3.3125 l 0.96875,-4.65625 z m 0,0"
               id="path88" /></g></g><g
           style="fill:#071b51;fill-opacity:1"
           id="g92"><g
             transform="translate(262.59877,234.51378)"
             id="g91"><path
               style="stroke:none"
               d="m 3.171875,-5.421875 -0.5625,2.703125 H 3.875 L 4.4375,-5.421875 Z M 5.34375,0 H 3.3125 L 3.03125,-1.9375 H 2.453125 L 2.046875,0 H 0 L 1.296875,-6.203125 H 5.6875 c 0.289062,0 0.5,0.089844 0.625,0.265625 0.144531,0.167969 0.179688,0.402344 0.109375,0.703125 l -0.46875,2.3125 c -0.054687,0.25 -0.164063,0.460937 -0.328125,0.625 -0.15625,0.167969 -0.351562,0.277344 -0.578125,0.328125 z m 0,0"
               id="path90" /></g></g></g></g></g></svg>
